<svg width="64" height="72" viewBox="0 0 64 72" fill="none" xmlns="http://www.w3.org/2000/svg">
<path d="M46.1978 16.8359C41.1422 14.4717 42.2563 9.60357 45.1867 7.02524C45.7063 6.56449 45.4114 5.73142 44.6998 5.72677C41.7835 5.7035 39.3025 6.43883 37.4535 8.26786C37.1024 8.61226 36.4845 8.46333 36.3768 7.99328C35.7074 5.20087 34.2984 2.39449 32.7256 0.356032C32.3604 -0.118677 31.6349 -0.118677 31.2651 0.356032C29.6922 2.38984 28.2832 5.19621 27.6138 7.99328C27.5015 8.45868 26.8836 8.61226 26.5372 8.26786C24.6881 6.43883 22.2118 5.7035 19.2908 5.72677C18.5793 5.73142 18.2844 6.56915 18.804 7.02524C21.7531 9.62684 22.3476 14.4577 17.6992 16.8918C14.4225 18.2507 11.4874 20.1403 8.89409 22.5557C2.96314 28.0847 0 35.4613 0 44.6995C0 48.5949 0.514921 52.0715 1.54476 55.1292C2.5746 58.1869 4.02107 60.7652 5.87946 62.8595C7.73786 64.9585 10.0082 66.6991 12.6951 68.072C15.3821 69.4496 18.3218 70.4502 21.5097 71.0692C24.7022 71.6882 28.2083 72 32.0234 72C36.8215 72 41.1188 71.4974 44.9198 70.4874C48.7209 69.4775 52.0726 67.9184 54.9795 65.8008C57.8865 63.6833 60.1147 60.849 61.6688 57.2886C63.2229 53.7283 64 49.5304 64 44.6949C64 29.8485 55.3306 21.099 46.2025 16.8313L46.1978 16.8359ZM32.7256 31.403C37.6454 30.5048 38.7642 29.5833 39.6442 23.4586C39.7051 23.1933 40.1919 23.1933 40.2809 23.4307C41.306 29.5042 42.3312 30.4256 47.3821 31.3239C47.7145 31.3751 47.7145 31.7753 47.3821 31.8265C42.3686 32.7759 41.4324 33.8557 40.4353 39.9571C40.3745 40.2224 39.8876 40.2224 39.7987 39.9571C38.7408 33.8557 37.7484 32.8271 32.7303 31.9568C32.3979 31.9056 32.3979 31.4542 32.7303 31.3983L32.7256 31.403ZM36.0866 44.2993C27.3751 46.0352 25.7554 48.0132 24.014 59.1735C23.9064 59.6575 23.0638 59.6575 22.9093 59.1735C21.0743 48.0132 19.347 46.133 10.6261 44.5413C10.0456 44.4436 10.0456 43.6198 10.6261 43.5221C19.1785 41.8838 21.1164 40.1944 22.6472 28.9876C22.7548 28.5035 23.5974 28.5035 23.7519 28.941C25.5354 40.0502 27.3142 41.7396 36.0866 43.3778C36.6671 43.4755 36.6671 44.2015 36.0866 44.2993ZM50.5044 53.6166C45.9497 54.4776 45.0977 55.4643 44.1896 61.0072C44.1334 61.2492 43.6934 61.2492 43.6091 61.0072C42.6495 55.4643 41.746 54.5288 37.182 53.7376C36.8777 53.6911 36.8777 53.2815 37.182 53.2303C41.6571 52.4159 42.6729 51.5782 43.4687 46.0073C43.5249 45.7653 43.9649 45.7653 44.0491 45.984C44.9807 51.5037 45.9122 52.3414 50.5044 53.1559C50.8087 53.2024 50.8087 53.5654 50.5044 53.612V53.6166Z" fill="#EA3D5B"/>
</svg>
